<svg width="298" height="29" viewBox="0 0 298 29" fill="none" xmlns="http://www.w3.org/2000/svg">
<path d="M7.13538 25.788V8.98829C7.16954 7.95495 7.72981 7.97565 8.24228 7.90057H11.9912C12.4579 8.07509 12.8314 8.35932 12.7453 9.18409V25.7402H19.4079V8.87894C19.3995 8.3493 19.5946 7.94307 20.3982 7.90582H23.9339C24.4623 7.92083 24.9259 8.04699 24.9584 8.91255V25.7166H31.463V6.46271C30.883 4.81814 31.1011 2.86958 27.3588 2.42963H19.8502C17.2775 2.65598 16.7078 4.21964 15.9863 5.68191C15.1627 3.84457 13.829 2.76328 11.9955 2.42261H4.16864C2.53054 2.83928 0.88027 3.22985 0.399475 6.12648V25.755L7.13538 25.788Z" fill="black"/>
<path d="M54.3717 0.00158691H60.6363V5.56506H69.2777V11.0222H60.6715V19.6682C60.7291 20.1847 61.0302 20.4542 61.5729 20.4786H69.2566V25.7354H58.0229C56.0491 25.6447 54.2038 25.3052 54.3513 21.1095L54.3717 0.00158691Z" fill="black"/>
<path d="M91.4576 0H97.8567V19.6495C97.8727 20.0717 97.9712 20.4524 98.7538 20.4889H101.183V25.7931H94.9286C93.1161 25.6319 91.5897 24.9541 91.5149 21.6547L91.4576 0Z" fill="black"/>
<path d="M37.2196 5.58887C34.6253 5.8655 33.7285 7.49419 33.7095 9.38698V21.7608C33.9616 24.2432 35.4535 25.4349 37.779 25.7597H51.9521V20.473H40.71C40.238 20.4038 39.8783 20.2284 39.9123 19.6891V17.9768H49.4298C51.0434 17.7921 52.7355 17.9776 52.8969 14.5698V8.76512C52.8128 6.3922 51.4046 5.77126 49.6646 5.58887H37.2196ZM40.6491 11.0007H46.09C46.7272 11.1025 46.7291 11.3609 46.7228 11.6225V12.7235C46.7811 13.2211 46.5401 13.3903 46.0989 13.3384H39.9517L39.9571 11.6806C40.0707 11.2698 40.3274 11.0841 40.6491 11.0007Z" fill="black"/>
<path d="M78.7405 5.59242C76.3114 5.59386 73.8821 5.59792 71.4531 5.59422C71.4467 7.36995 71.4398 9.14571 71.4334 10.9214H81.7504C82.3201 10.9862 83.0786 10.7136 83.4571 11.2526C83.6379 11.9304 83.5055 12.6477 83.5395 13.3437H77.9875C76.5017 13.3735 75.0089 13.2768 73.529 13.4107C71.8742 13.6045 70.7142 15.0681 70.4187 16.6028V19.8741C70.4612 21.1458 70.3109 22.4307 70.5352 23.6881C70.7334 24.8824 71.8624 25.7529 73.0773 25.7545C76.4326 25.7659 79.7892 25.7549 83.1451 25.758C84.4108 25.7113 85.6989 25.8864 86.9403 25.5872C88.5998 25.1921 89.5389 23.559 89.7584 21.9969V12.2197C89.7046 10.745 89.9243 9.2332 89.4841 7.79976C89.0522 6.33925 87.472 5.62964 86.026 5.60475C83.5973 5.59157 81.1695 5.59101 78.7405 5.59242ZM77.3099 18.0156H83.2294L83.2239 19.6733C83.1109 20.299 82.4407 20.4164 81.9063 20.3533H77.0929C76.3002 20.3565 76.4727 19.5234 76.4582 19.0021C76.4342 18.3332 76.654 18.0156 77.3099 18.0156Z" fill="black"/>
<path d="M142.276 7.9235V2.79327H123.701V24.2653H142.22V19.2869H129.55V16.128H139.483V10.9961H129.661V7.88932L142.276 7.9235Z" fill="black"/>
<path d="M159.282 10.7923V5.76386H146.612C143.364 5.48882 143.477 7.20521 143.471 8.85071V14.3052C143.36 16.0992 144.128 17.1182 146.199 16.9864H154.046C154.295 17.0071 154.565 17.2039 154.57 17.5729V18.7819C154.581 19.4284 154.224 19.2884 153.945 19.3137H143.423V24.2378H157.371C157.371 24.2378 160.347 23.4022 160.314 21.5101C160.281 19.6179 160.314 15.5815 160.314 15.5815C160.194 13.4553 159.111 13.0761 157.866 12.9922H149.509C149.046 13.0386 149.109 12.7766 149.106 12.5525V11.1742C149.105 10.8373 149.319 10.7242 149.86 10.7462L159.282 10.7923Z" fill="black"/>
<path d="M164.897 5.79477C163.198 5.9323 161.795 6.44258 161.797 8.74436V20.953C162.013 23.1891 163.326 24.0867 165.2 24.2994H171.061C171.477 24.2494 172.33 23.4835 173.206 22.0417V29H179.042V9.36646C179.162 6.61802 177.64 5.91925 175.659 5.79477H164.897ZM168.002 10.6723C168.072 10.6692 168.147 10.6724 168.228 10.6804H172.603C173.106 10.7205 173.417 10.9341 173.356 11.4822L173.375 18.4298C173.396 18.845 173.36 19.2345 172.652 19.312L167.999 19.2852C167.387 19.3784 167.417 18.9009 167.383 18.4807L167.38 11.5358C167.315 10.9908 167.514 10.6949 168.002 10.6723Z" fill="black"/>
<path d="M180.888 5.72696H186.584V18.7055C186.655 19.2672 186.917 19.4258 187.279 19.3725H191.649C192.205 19.3476 192.418 19.0389 192.453 18.5823V5.74569H198.136V21.091C197.954 23.6312 196.628 24.2127 194.961 24.2117H183.844C182.532 23.9634 181.199 23.7678 180.817 21.2376L180.888 5.72696Z" fill="black"/>
<path d="M230.304 0.716095V8.01499C229.618 6.99248 228.928 6.03266 228.162 5.90738H221.629C219.991 6.10934 219.027 7.1396 218.74 8.9964V20.8564C218.979 22.849 219.543 24.5671 222.342 24.396H232.793C234.738 24.396 236.198 21.8345 236.198 21.0468V0.716095H230.304ZM225.332 10.6777H229.477C229.919 10.7336 230.284 10.9087 230.334 11.5625V18.5021C230.316 18.9649 230.318 19.4403 229.401 19.4138H225.308C224.338 19.4733 224.595 18.9928 224.519 18.6603L224.505 11.1389C224.559 10.8632 224.76 10.6692 225.332 10.6777Z" fill="black"/>
<path d="M237.821 8.5959V24.1649H243.321V11.6513C243.385 11.1972 243.149 10.6056 244.354 10.6747H251.073V5.89783H240.954C239.12 5.85008 237.96 6.61088 237.821 8.5959Z" fill="black"/>
<path d="M251.704 0.681548V4.16438H258.148V0.531921L251.704 0.681548Z" fill="black"/>
<path d="M252.121 5.81335H257.869V18.8966C257.941 19.1002 257.684 19.3926 258.403 19.4216H261.106V24.2874H255.172C254.351 24.2874 252.006 22.9586 252.018 21.1883L252.121 5.81335Z" fill="black"/>
<path d="M296.657 10.6671V5.75391H283.495C281.477 5.94159 280.844 7.08187 280.671 8.5393V14.008C280.474 16.3539 282.046 16.8848 283.866 17.1611H291.328C291.487 17.2602 291.679 16.9812 291.792 17.6239V18.692C291.875 19.2594 291.533 19.2849 291.216 19.3428H280.548V24.1823H294.515C296.183 24.0974 297.459 23.4089 297.601 20.9711V15.8446C297.367 13.9437 296.18 13.0315 294.26 12.8801H286.909C286.518 12.927 286.346 12.7585 286.371 12.3984V11.2053C286.323 10.6028 286.669 10.6466 286.971 10.6166L296.657 10.6671Z" fill="black"/>
<path d="M200.545 6.05215L200.528 10.7715H210.376C210.814 10.769 211.253 10.7616 211.263 11.4794L211.255 12.9193H203.006C201.281 12.9693 200.108 13.8561 199.63 15.8046V20.5883C199.5 22.8661 200.432 24.0204 202.55 23.9186H213.326C215.102 23.8099 216.358 22.8741 216.764 20.5856V9.5434C216.729 7.53638 215.893 6.11705 213.211 6.05215H200.545ZM205.612 17.1989C205.656 17.1984 205.702 17.2011 205.751 17.207H211.26L211.255 18.6925C211.153 19.0609 210.924 19.2265 210.635 19.3012H205.759C205.188 19.2099 205.186 18.978 205.192 18.7435V17.7567C205.146 17.3664 205.306 17.2026 205.612 17.1989Z" fill="black"/>
<path d="M262.672 6.0361L262.656 10.7581H272.501C272.938 10.7557 273.381 10.7456 273.391 11.4633L273.382 12.9033H265.133C263.408 12.9533 262.235 13.8428 261.758 15.7912V20.5722C261.627 22.8501 262.559 24.0043 264.678 23.9026H275.453C277.229 23.7938 278.485 22.8581 278.891 20.5695V9.52735C278.857 7.52033 278.021 6.101 275.339 6.0361H262.672ZM267.701 17.2767C267.745 17.2762 267.794 17.2789 267.843 17.2848H273.352L273.347 18.7703C273.245 19.1387 273.016 19.3043 272.727 19.379H267.851C267.28 19.2877 267.275 19.0558 267.281 18.8213V17.8345C267.235 17.4442 267.395 17.2804 267.701 17.2767Z" fill="black"/>
</svg>
