<svg width="800" height="348" viewBox="0 0 800 348" fill="none" xmlns="http://www.w3.org/2000/svg">
<path d="M93.3994 183.617V63.9988C93.6384 56.6412 97.5586 56.7886 101.144 56.254H127.375C130.641 57.4966 133.254 59.5204 132.651 65.393V183.277H179.269V63.2203C179.21 59.4491 180.576 56.5566 186.198 56.2914H210.937C214.635 56.3982 217.878 57.2966 218.105 63.4596V183.109H263.618V46.016C259.56 34.3062 261.085 20.432 234.901 17.2995H182.364C164.363 18.9111 160.377 30.0448 155.328 40.4566C149.566 27.3742 140.234 19.6751 127.405 17.2495H72.6414C61.1797 20.2163 49.6329 22.9972 46.2688 43.622V183.383L93.3994 183.617Z" fill="#B60000"/>
<path d="M423.908 0.00942993H467.741V39.6229H528.204V78.4795H467.987V140.041C468.39 143.718 470.497 145.638 474.294 145.811H528.057V183.241H449.455C435.645 182.595 422.733 180.178 423.765 150.303L423.908 0.00942993Z" fill="#B60000"/>
<path d="M683.395 0H728.169V139.909C728.281 142.916 728.97 145.627 734.446 145.886H751.442V183.654H707.681C694.999 182.506 684.319 177.679 683.795 154.187L683.395 0Z" fill="#B60000"/>
<path d="M85.6954 249.205V225.206H0.309052V325.649H85.437V302.361H27.1933V287.584H72.853V263.578H27.7041V249.045L85.6954 249.205Z" fill="#B60000"/>
<path d="M163.868 262.625V239.102H105.625C90.6948 237.816 91.2151 245.845 91.1854 253.542V279.057C90.6771 287.45 94.2059 292.216 103.728 291.6H139.796C140.941 291.697 142.184 292.617 142.205 294.343V299.999C142.257 303.023 140.617 302.368 139.332 302.486H90.9658V325.521H155.083C155.083 325.521 168.761 321.612 168.61 312.761C168.459 303.91 168.61 285.028 168.61 285.028C168.057 275.082 163.08 273.308 157.355 272.915H118.943C116.815 273.133 117.101 271.907 117.09 270.859V264.411C117.083 262.835 118.071 262.306 120.557 262.409L163.868 262.625Z" fill="#B60000"/>
<path d="M189.676 239.247C181.868 239.89 175.416 242.277 175.427 253.045V310.155C176.42 320.615 182.456 324.814 191.069 325.809H218.012C219.923 325.575 223.845 321.992 227.871 315.247V347.797H254.701V255.955C255.249 243.098 248.257 239.829 239.147 239.247H189.676ZM203.951 262.063C204.271 262.049 204.617 262.064 204.992 262.101H225.099C227.413 262.289 228.841 263.288 228.561 265.852L228.649 298.352C228.746 300.294 228.582 302.116 225.325 302.478L203.938 302.353C201.123 302.789 201.261 300.555 201.103 298.59L201.09 266.103C200.791 263.553 201.709 262.169 203.951 262.063Z" fill="#B60000"/>
<path d="M263.184 238.93H289.368V299.641C289.693 302.269 290.898 303.011 292.565 302.762H312.65C315.205 302.645 316.186 301.201 316.346 299.065V239.017H342.473V310.8C341.635 322.683 335.537 325.403 327.875 325.399H276.773C270.743 324.237 264.615 323.322 262.861 311.486L263.184 238.93Z" fill="#B60000"/>
<path d="M490.342 215.49V249.633C487.186 244.85 484.014 240.36 480.495 239.774H450.466C442.932 240.718 438.505 245.538 437.183 254.224V309.703C438.28 319.024 440.874 327.061 453.74 326.26H501.781C510.722 326.26 517.435 314.278 517.435 310.594V215.49H490.342ZM467.488 262.088H486.541C488.572 262.35 490.251 263.169 490.48 266.228V298.69C490.398 300.855 490.405 303.079 486.19 302.955H467.375C462.917 303.233 464.097 300.985 463.75 299.43L463.685 264.246C463.934 262.956 464.854 262.049 467.488 262.088Z" fill="#B60000"/>
<path d="M524.894 252.35V325.18H550.176V266.643C550.471 264.519 549.388 261.752 554.927 262.074H585.815V239.729H539.299C530.868 239.506 525.536 243.065 524.894 252.35Z" fill="#B60000"/>
<path d="M588.715 215.328V231.62H618.336V214.628L588.715 215.328Z" fill="#B60000"/>
<path d="M590.628 239.334H617.052V300.535C617.383 301.488 616.2 302.855 619.508 302.991H631.931V325.753H604.655C600.88 325.753 590.103 319.537 590.157 311.256L590.628 239.334Z" fill="#B60000"/>
<path d="M795.353 262.039V239.056H734.848C725.576 239.934 722.664 245.268 721.87 252.086V277.667C720.963 288.641 728.189 291.125 736.554 292.417H770.857C771.59 292.881 772.473 291.575 772.99 294.582V299.578C773.373 302.233 771.799 302.352 770.343 302.623H721.302V325.261H785.508C793.175 324.864 799.042 321.643 799.691 310.239V286.259C798.618 277.366 793.162 273.1 784.333 272.391H750.545C748.744 272.61 747.958 271.822 748.073 270.138V264.557C747.848 261.738 749.441 261.943 750.827 261.803L795.353 262.039Z" fill="#B60000"/>
<path d="M353.543 240.451L353.468 262.527H398.737C400.748 262.516 402.769 262.481 402.814 265.839L402.776 272.575H364.857C356.929 272.809 351.535 276.957 349.341 286.071V308.449C348.74 319.104 353.025 324.504 362.762 324.028H412.296C420.458 323.519 426.233 319.142 428.101 308.436V256.783C427.94 247.394 424.098 240.755 411.769 240.451H353.543ZM376.836 292.594C377.037 292.592 377.249 292.604 377.476 292.632H402.801L402.776 299.581C402.308 301.304 401.255 302.078 399.929 302.428H377.514C374.887 302.001 374.879 300.916 374.905 299.819V295.203C374.694 293.377 375.431 292.611 376.836 292.594Z" fill="#B60000"/>
<path d="M303.897 39.7943C285.744 41.764 279.469 53.3606 279.337 66.8378V154.943C281.1 172.618 291.539 181.103 307.81 183.416H406.978V145.773H328.319C325.016 145.28 322.499 144.032 322.737 140.192V127.999H389.33C400.62 126.685 412.459 128.006 413.589 103.741V62.41C413.001 45.5142 403.148 41.0929 390.973 39.7943H303.897ZM327.892 78.3276H365.961C370.42 79.0526 370.433 80.8927 370.389 82.7554V90.595C370.797 94.1381 369.111 95.3424 366.024 94.9727H323.013L323.051 83.1693C323.845 80.2441 325.641 78.9215 327.892 78.3276Z" fill="#B60000"/>
<path d="M594.414 39.8194C577.418 39.8296 560.42 39.8585 543.425 39.8322C543.38 52.4759 543.332 65.1197 543.287 77.7634H615.474C619.461 78.2245 624.768 76.2836 627.416 80.1216C628.681 84.9472 627.755 90.0547 627.993 95.0106H589.146C578.75 95.2229 568.304 94.534 557.95 95.4873C546.371 96.8675 538.255 107.289 536.187 118.216V141.509C536.485 150.563 535.433 159.712 537.003 168.665C538.389 177.169 546.289 183.367 554.789 183.379C578.266 183.46 601.752 183.382 625.233 183.404C634.089 183.071 643.102 184.318 651.787 182.187C663.399 179.374 669.97 167.746 671.506 156.624V87.0076C671.129 76.5072 672.666 65.7427 669.586 55.5362C666.564 45.137 655.508 40.0844 645.39 39.9072C628.397 39.8133 611.41 39.8093 594.414 39.8194ZM584.405 128.275H625.823L625.784 140.079C624.994 144.534 620.305 145.37 616.565 144.921H582.886C577.34 144.944 578.547 139.012 578.446 135.3C578.277 130.537 579.815 128.275 584.405 128.275Z" fill="#B60000"/>
<path d="M639.131 240.376L639.056 262.465H684.313C686.324 262.453 688.357 262.406 688.402 265.764L688.363 272.499H650.445C642.516 272.733 637.123 276.894 634.929 286.009V308.374C634.327 319.029 638.612 324.428 648.35 323.952H697.884C706.046 323.444 711.821 319.066 713.689 308.361V256.707C713.528 247.319 709.686 240.679 697.357 240.376H639.131ZM662.249 292.958C662.45 292.955 662.674 292.968 662.901 292.996H688.226L688.201 299.945C687.732 301.668 686.679 302.442 685.353 302.792H662.938C660.312 302.365 660.291 301.28 660.317 300.183V295.567C660.106 293.741 660.844 292.975 662.249 292.958Z" fill="#B60000"/>
</svg>
